<?xml version="1.0" encoding="utf-8"?>
<!-- Generator: Adobe Illustrator 21.0.0, SVG Export Plug-In . SVG Version: 6.00 Build 0)  -->
<svg version="1.0" id="Layer_1" xmlns="http://www.w3.org/2000/svg" xmlns:xlink="http://www.w3.org/1999/xlink" x="0px" y="0px"
	 viewBox="0 0 1261.4 314.6" style="enable-background:new 0 0 1261.4 314.6;" xml:space="preserve">
<style type="text/css">
	.st0{fill:#FFFFFF;}
	.st1{fill:none;stroke:#FFFFFF;stroke-width:2;}
</style>
<g>
	<path class="st0" d="M1175.4,101.3l4.2-8.4c-11.5-7.5-28.4-12.6-44.1-12.6c-30.4,0-50.7,14.3-50.7,36.6c0,55.5,90.5,30.8,90.1,79.1
		c0,18.1-17,29.5-43.4,29.5c-18.1,0-37.7-7.9-50.2-20.9l-4.8,8.2c13.4,13.2,34.4,22.3,54.9,22.3c32.2,0,53.5-15.4,53.5-39.2
		c0.4-56.8-90.1-32.6-90.1-79.5c0-16.1,15.9-26.2,40.3-26.2C1148.3,90,1163.9,93.8,1175.4,101.3L1175.4,101.3z M956.2,151.3v9.3
		h63.2v-9.3H956.2L956.2,151.3z M930,234.8h102.2v-9h-93V89.8h90.1v-9H930V234.8L930,234.8z M746,157.4c0-37.7,31.5-68.1,70.5-68.1
		c18.3,0,35.7,7.1,48.5,18.9l5.5-7.1c-14.3-12.8-33.5-20.7-54.2-20.7c-43.8,0-79.5,34.4-79.5,77.1c0,42.7,35.7,77.3,79.5,77.3
		c20.5,0,40.1-8.2,54.4-21.4l-5.7-6.4c-13,11.7-30.2,18.7-48.5,18.7C777.5,226,746,195.3,746,157.4L746,157.4z M668.9,234.8h9.3
		v-154h-9.3V234.8L668.9,234.8z M610.3,157.7c0-42.7-35.7-77.1-79.8-77.1c-44.1,0-79.8,34.4-79.8,77.1c0,42.7,35.7,77.3,79.8,77.3
		C574.6,235,610.3,200.4,610.3,157.7L610.3,157.7z M600.8,157.7c0,37.7-31.7,68.3-70.3,68.3c-38.6,0-70.3-30.6-70.3-68.3
		c0-37.7,31.7-68.1,70.3-68.1C569.1,89.6,600.8,120,600.8,157.7L600.8,157.7z M382.9,234.8h9.3v-154h-9.3V234.8L382.9,234.8z
		 M278.7,162.1h85.9v-9h-85.9V80.8h-9.3v154h9.3V162.1L278.7,162.1z M85.5,157.4c0-37.7,31.5-68.1,70.5-68.1
		c18.3,0,35.7,7.1,48.5,18.9l5.5-7.1c-14.3-12.8-33.5-20.7-54.2-20.7c-43.8,0-79.5,34.4-79.5,77.1c0,42.7,35.7,77.3,79.5,77.3
		c20.5,0,40.1-8.2,54.4-21.4l-5.7-6.4c-13,11.7-30.2,18.7-48.5,18.7C117,226,85.5,195.3,85.5,157.4L85.5,157.4z"/>
	<path class="st1" d="M1175.4,101.3l4.2-8.4c-11.5-7.5-28.4-12.6-44.1-12.6c-30.4,0-50.7,14.3-50.7,36.6c0,55.5,90.5,30.8,90.1,79.1
		c0,18.1-17,29.5-43.4,29.5c-18.1,0-37.7-7.9-50.2-20.9l-4.8,8.2c13.4,13.2,34.4,22.3,54.9,22.3c32.2,0,53.5-15.4,53.5-39.2
		c0.4-56.8-90.1-32.6-90.1-79.5c0-16.1,15.9-26.2,40.3-26.2C1148.3,90,1163.9,93.8,1175.4,101.3L1175.4,101.3z M956.2,151.3v9.3
		h63.2v-9.3H956.2L956.2,151.3z M930,234.8h102.2v-9h-93V89.8h90.1v-9H930V234.8L930,234.8z M746,157.4c0-37.7,31.5-68.1,70.5-68.1
		c18.3,0,35.7,7.1,48.5,18.9l5.5-7.1c-14.3-12.8-33.5-20.7-54.2-20.7c-43.8,0-79.5,34.4-79.5,77.1c0,42.7,35.7,77.3,79.5,77.3
		c20.5,0,40.1-8.2,54.4-21.4l-5.7-6.4c-13,11.7-30.2,18.7-48.5,18.7C777.5,226,746,195.3,746,157.4L746,157.4z M668.9,234.8h9.3
		v-154h-9.3V234.8L668.9,234.8z M610.3,157.7c0-42.7-35.7-77.1-79.8-77.1c-44.1,0-79.8,34.4-79.8,77.1c0,42.7,35.7,77.3,79.8,77.3
		C574.6,235,610.3,200.4,610.3,157.7L610.3,157.7z M600.8,157.7c0,37.7-31.7,68.3-70.3,68.3c-38.6,0-70.3-30.6-70.3-68.3
		c0-37.7,31.7-68.1,70.3-68.1C569.1,89.6,600.8,120,600.8,157.7L600.8,157.7z M382.9,234.8h9.3v-154h-9.3V234.8L382.9,234.8z
		 M278.7,162.1h85.9v-9h-85.9V80.8h-9.3v154h9.3V162.1L278.7,162.1z M85.5,157.4c0-37.7,31.5-68.1,70.5-68.1
		c18.3,0,35.7,7.1,48.5,18.9l5.5-7.1c-14.3-12.8-33.5-20.7-54.2-20.7c-43.8,0-79.5,34.4-79.5,77.1c0,42.7,35.7,77.3,79.5,77.3
		c20.5,0,40.1-8.2,54.4-21.4l-5.7-6.4c-13,11.7-30.2,18.7-48.5,18.7C117,226,85.5,195.3,85.5,157.4L85.5,157.4z"/>
</g>
</svg>
